<?xml version="1.0" encoding="utf-8"?>
<!-- Generator: Adobe Illustrator 17.0.0, SVG Export Plug-In . SVG Version: 6.00 Build 0)  -->
<!DOCTYPE svg PUBLIC "-//W3C//DTD SVG 1.1//EN" "http://www.w3.org/Graphics/SVG/1.1/DTD/svg11.dtd">
<svg version="1.1" xmlns="http://www.w3.org/2000/svg" xmlns:xlink="http://www.w3.org/1999/xlink" x="0px" y="0px"
	 width="708.66px" height="841.89px" viewBox="0 0 708.66 841.89" enable-background="new 0 0 708.66 841.89" xml:space="preserve">
<g id="Capa_1">
	<g>
		<path fill="#307EA5" d="M392.524,457.175c-11.361-6.614-27.151-6.614-39.98-6.614h-42.128v86.811h38.666
			c14.313,0,32.569,1.026,44.911-7.64c11.331-7.625,17.746-22.596,17.746-36.85C411.739,479.638,403.855,463.797,392.524,457.175z
			 M376.631,383.039c9.375-7.138,14.291-19.865,14.291-31.587c0-12.734-5.913-24.958-16.757-31.572
			c-11.346-6.614-32.082-5.086-45.399-5.086h-18.351v76.402h24.279C348.506,391.189,364.797,392.207,376.631,383.039z
			 M584.091,66.615H124.554C55.77,66.615,0,122.385,0,191.184v459.522c0,68.784,55.77,124.569,124.554,124.569h459.536
			c68.784,0,124.569-55.785,124.569-124.569V191.184C708.66,122.385,652.875,66.615,584.091,66.615z M373.552,602.059H228.779
			V252.646h158.179c45.819,0,88.095,29.166,88.095,80.61c0,39.722-22.175,66.924-50.462,75.376v1.026
			c41.944,8.666,71.899,31.447,71.899,86.405C496.49,546.924,461.854,602.059,373.552,602.059z"/>
	</g>
	<g id="Слой_2">
		<rect x="76.83" y="157.445" fill="#307EA5" width="576" height="494"/>
	</g>
	<g display="none">
		<g id="instagram" display="inline">
			<g>
				<path fill="#FFFFFF" d="M471.378,295.723h-32.931c-10.758,0-19.516,8.758-19.516,19.516v32.923
					c0,10.758,8.759,19.516,19.516,19.516h32.931c10.758,0,19.516-8.759,19.516-19.516V315.24
					C490.894,304.481,482.135,295.723,471.378,295.723z M473.804,348.162c0,1.342-1.085,2.427-2.427,2.427h-32.931
					c-1.342,0-2.427-1.085-2.427-2.427V315.24c0-1.342,1.094-2.427,2.427-2.427h32.931c1.332,0,2.427,1.085,2.427,2.427V348.162z
					 M452.305,250.231H247.232c-42.399,0-76.902,34.503-76.902,76.903v196.528c0,42.4,34.503,76.903,76.902,76.903h205.073
					c42.399,0,76.902-34.503,76.902-76.903V327.134C529.208,284.734,494.704,250.231,452.305,250.231z M512.118,523.661
					c0,32.983-26.831,59.813-59.813,59.813H247.232c-32.983,0-59.813-26.83-59.813-59.813V395.491h86.139
					c-16.303,18.166-26.327,42.083-26.327,68.357c0,56.541,45.996,102.536,102.536,102.536s102.536-45.996,102.536-102.536
					c0-26.275-10.023-50.191-26.327-68.357h86.139V523.661z M349.769,378.401c47.116,0,85.447,38.332,85.447,85.447
					c0,47.116-38.331,85.448-85.447,85.448s-85.447-38.331-85.447-85.448C264.322,416.733,302.653,378.401,349.769,378.401z
					 M512.118,378.401H406.326c-16.226-10.775-35.657-17.09-56.557-17.09c-20.892,0-40.331,6.314-56.557,17.09H187.419v-51.268
					c0-32.983,26.83-59.813,59.813-59.813h205.073c32.982,0,59.813,26.83,59.813,59.813V378.401z M349.769,523.661
					c32.983,0,59.813-26.83,59.813-59.813c0-32.982-26.83-59.813-59.813-59.813s-59.813,26.831-59.813,59.813
					C289.956,496.831,316.786,523.661,349.769,523.661z M349.769,421.126c23.558,0,42.723,19.167,42.723,42.723
					c0,23.558-19.166,42.723-42.723,42.723s-42.723-19.166-42.723-42.723C307.045,440.291,326.211,421.126,349.769,421.126z"/>
			</g>
		</g>
	</g>
	<g>
		<rect x="200.014" y="228.511" fill="#FFFFFF" width="327.283" height="372.038"/>
		<path id="Facebook__x28_alt_x29_" fill="#307EA5" d="M578.787,240.857c0-39.538-36.606-75.248-77.164-75.248H192.969
			c-40.557,0-77.164,35.71-77.164,75.248v300.962c0,39.538,36.606,75.248,77.169,75.248h154.322V446.516h-56.587v-75.243h56.587
			v-29.315c0-50.558,38.932-96.09,86.809-96.09h62.374v75.243h-62.374c-6.826,0-14.79,8.081-14.79,20.185v29.977h77.164v75.243
			h-77.164v170.551h82.308c40.557,0,77.164-35.71,77.164-75.248V240.857z"/>
	</g>
	<g display="none">
		<path display="inline" fill="#FFFFFF" d="M354.33,386.996c-18.001,0-32.573,14.572-32.573,32.573s14.572,32.573,32.573,32.573
			c18.001,0,32.573-14.572,32.573-32.573S372.331,386.996,354.33,386.996z"/>
		<path display="inline" fill="#FFFFFF" d="M445.072,370.023c8.051,14.713,12.635,31.593,12.635,49.545
			c0,57.089-46.46,103.377-103.377,103.377s-103.377-46.202-103.377-103.291c0-18.023,4.622-34.202,12.733-49.631h-96.223v169.552
			c0,62.746,45.945,75.604,84.347,75.604h215.497c42.174,0,73.89-32.745,73.89-76.804V370.023H445.072z"/>
		<path display="inline" fill="#FFFFFF" d="M354.33,333.336c-47.66,0-86.405,38.745-86.405,86.405s38.745,86.233,86.405,86.233
			s86.405-38.745,86.405-86.405S401.99,333.336,354.33,333.336L354.33,333.336z M354.33,484.886
			c-36.002,0-65.146-29.144-65.146-65.146s29.144-65.146,65.146-65.146s65.146,29.144,65.146,65.146S390.332,484.886,354.33,484.886
			z"/>
		<path display="inline" fill="#FFFFFF" d="M475.022,241.445H263.535c0.165,1.714-0.067,1.857-0.067,2.572v82.804
			c0,4.8-3.772,8.572-8.572,8.572c-4.629,0-8.572-3.772-8.572-8.572v-82.804c0-0.71,0.458-0.857,0.626-2.572h-6.112
			c-2.009,0-4.384,0.341-6.297,0.466c0.132,0.595-0.218,1.467-0.218,2.105v82.804c0,4.8-3.943,8.572-8.572,8.572
			s-8.572-3.772-8.572-8.572v-81.68c-3.429,1.251-7.384,2.851-10.951,4.745c0.017,0.218,0.665,0.423,0.665,0.645v76.461
			c0,4.629-3.943,8.4-8.572,8.4s-8.572-3.772-8.572-8.572v-63.55c-15.429,17.113-22.287,41.932-22.287,64.579v25.03h108.006v-0.509
			c18.858-22.133,47.264-36.436,78.69-36.436c31.097,0,59.139,14.658,78.092,35.23h108.947v-25.716
			C541.197,273.847,506.91,241.445,475.022,241.445L475.022,241.445z M501.766,311.906c0,10.321-8.366,18.687-18.687,18.687h-27.773
			c-10.321,0-18.687-8.366-18.687-18.687v-27.773c0-10.321,8.366-18.687,18.687-18.687h27.773c10.321,0,18.687,8.366,18.687,18.687
			V311.906z"/>
	</g>
	<rect x="-875.17" width="556" height="546"/>
	<rect x="-835.17" y="38.965" fill="#FFFFFF" width="568" height="627.83"/>
</g>
<g id="Слой_7">
</g>
<g id="Слой_6">
</g>
<g id="Слой_5">
</g>
<g id="Слой_4" display="none">
	<rect x="74.83" y="137.445" display="inline" fill="#FFFFFF" width="580" height="637.83"/>
</g>
<g id="Слой_3">
	<rect x="-831.17" y="209.658" width="468" height="503.479"/>
</g>
</svg>
